<svg xmlns="http://www.w3.org/2000/svg" xmlns:xlink="http://www.w3.org/1999/xlink" width="17.001" height="17.414" viewBox="0 0 17.001 17.414">
  <defs>
    <linearGradient id="linear-gradient" x1="0.5" y1="1" x2="0.5" gradientUnits="objectBoundingBox">
      <stop offset="0"/>
      <stop offset="1" stop-opacity="0"/>
    </linearGradient>
  </defs>
  <g id="Dribbble_3" data-name="Dribbble 3" transform="translate(-793.994 -3380.583)">
    <path id="Dribbble_3-2" data-name="Dribbble 3" d="M802.614,3398a8.766,8.766,0,0,1-8.62-8.8,8.6,8.6,0,0,1,8.62-8.611,8.4,8.4,0,0,1,8.38,8.611A8.566,8.566,0,0,1,802.614,3398Zm7.1-7.615a9.8,9.8,0,0,0-4.418-.317,32.211,32.211,0,0,1,1.43,5.288A7.231,7.231,0,0,0,809.716,3390.382Zm-4.226,5.649a30.993,30.993,0,0,0-1.571-5.624l-.049.016a10.113,10.113,0,0,0-5.776,4.632,6.17,6.17,0,0,0,7.4.975Zm-8.346-1.868a11.706,11.706,0,0,1,5.985-4.894c.1-.031.193-.061.29-.089-.185-.421-.386-.843-.6-1.259a27.024,27.024,0,0,1-7.567,1.056c0,.075,0,.15,0,.226A7.416,7.416,0,0,0,797.144,3394.164Zm-1.737-6.478a27.248,27.248,0,0,0,6.807-.9,46.786,46.786,0,0,0-2.8-4.361A7.466,7.466,0,0,0,795.407,3387.686Zm5.482-5.691a39.565,39.565,0,0,1,2.747,4.341,8.638,8.638,0,0,0,3.931-2.751,7.487,7.487,0,0,0-4.953-1.868A7.314,7.314,0,0,0,800.889,3381.995Zm7.5,2.447a10.149,10.149,0,0,1-4.183,3c.171.354.336.713.489,1.074q.081.193.159.383a16.34,16.34,0,0,1,5.031.239A7.488,7.488,0,0,0,808.386,3384.442Z" fill="#614261"/>
    <path id="Gradient_Overlay" data-name="Gradient Overlay" d="M802.614,3398a8.766,8.766,0,0,1-8.62-8.8,8.6,8.6,0,0,1,8.62-8.611,8.4,8.4,0,0,1,8.38,8.611A8.566,8.566,0,0,1,802.614,3398Zm7.1-7.615a9.8,9.8,0,0,0-4.418-.317,32.211,32.211,0,0,1,1.43,5.288A7.231,7.231,0,0,0,809.716,3390.382Zm-4.226,5.649a30.993,30.993,0,0,0-1.571-5.624l-.049.016a10.113,10.113,0,0,0-5.776,4.632,6.17,6.17,0,0,0,7.4.975Zm-8.346-1.868a11.706,11.706,0,0,1,5.985-4.894c.1-.031.193-.061.29-.089-.185-.421-.386-.843-.6-1.259a27.024,27.024,0,0,1-7.567,1.056c0,.075,0,.15,0,.226A7.416,7.416,0,0,0,797.144,3394.164Zm-1.737-6.478a27.248,27.248,0,0,0,6.807-.9,46.786,46.786,0,0,0-2.8-4.361A7.466,7.466,0,0,0,795.407,3387.686Zm5.482-5.691a39.565,39.565,0,0,1,2.747,4.341,8.638,8.638,0,0,0,3.931-2.751,7.487,7.487,0,0,0-4.953-1.868A7.314,7.314,0,0,0,800.889,3381.995Zm7.5,2.447a10.149,10.149,0,0,1-4.183,3c.171.354.336.713.489,1.074q.081.193.159.383a16.34,16.34,0,0,1,5.031.239A7.488,7.488,0,0,0,808.386,3384.442Z" opacity="0.13" fill="url(#linear-gradient)"/>
    <path id="Color_Overlay" data-name="Color Overlay" d="M802.614,3398a8.766,8.766,0,0,1-8.62-8.8,8.6,8.6,0,0,1,8.62-8.611,8.4,8.4,0,0,1,8.38,8.611A8.566,8.566,0,0,1,802.614,3398Zm7.1-7.615a9.8,9.8,0,0,0-4.418-.317,32.211,32.211,0,0,1,1.43,5.288A7.231,7.231,0,0,0,809.716,3390.382Zm-4.226,5.649a30.993,30.993,0,0,0-1.571-5.624l-.049.016a10.113,10.113,0,0,0-5.776,4.632,6.17,6.17,0,0,0,7.4.975Zm-8.346-1.868a11.706,11.706,0,0,1,5.985-4.894c.1-.031.193-.061.29-.089-.185-.421-.386-.843-.6-1.259a27.024,27.024,0,0,1-7.567,1.056c0,.075,0,.15,0,.226A7.416,7.416,0,0,0,797.144,3394.164Zm-1.737-6.478a27.248,27.248,0,0,0,6.807-.9,46.786,46.786,0,0,0-2.8-4.361A7.466,7.466,0,0,0,795.407,3387.686Zm5.482-5.691a39.565,39.565,0,0,1,2.747,4.341,8.638,8.638,0,0,0,3.931-2.751,7.487,7.487,0,0,0-4.953-1.868A7.314,7.314,0,0,0,800.889,3381.995Zm7.5,2.447a10.149,10.149,0,0,1-4.183,3c.171.354.336.713.489,1.074q.081.193.159.383a16.34,16.34,0,0,1,5.031.239A7.488,7.488,0,0,0,808.386,3384.442Z" fill="#717171"/>
  </g>
</svg>
