<svg xmlns="http://www.w3.org/2000/svg" xmlns:xlink="http://www.w3.org/1999/xlink" width="17.251" height="16.217" viewBox="0 0 17.251 16.217">
  <defs>
    <linearGradient id="linear-gradient" x1="-7.894" y1="4.243" x2="-7.894" y2="-208.502" gradientUnits="objectBoundingBox">
      <stop offset="0"/>
      <stop offset="1" stop-opacity="0"/>
    </linearGradient>
  </defs>
  <g id="Skype" transform="translate(-748.679 -3381.188)">
    <path id="Skype-2" data-name="Skype" d="M760.944,3397.405a4.045,4.045,0,0,1-2.32-.636l-.071-.04c-.089.01-.86.1-1.2.1a7.522,7.522,0,0,1-7.486-7.541.833.833,0,0,1,.044-.23,4.94,4.94,0,0,1-1.231-2.977,4.768,4.768,0,0,1,1.515-3.447,5.119,5.119,0,0,1,3.505-1.441,4.758,4.758,0,0,1,2.382.684l.046-.028a7.489,7.489,0,0,1,8.711,7.44c0,.067,0,.133,0,.2l.049.105a4.837,4.837,0,0,1,1.046,2.977,4.751,4.751,0,0,1-1.467,3.422,4.937,4.937,0,0,1-3.458,1.417Zm-6.991-6.018a.955.955,0,0,0-.632.273.984.984,0,0,0-.415.7.853.853,0,0,0,.238.591l.112.1a5.065,5.065,0,0,0,1.615,1.079,7.912,7.912,0,0,0,2.748.413,5.247,5.247,0,0,0,3.036-.9,2.586,2.586,0,0,0,1.3-2.138,2.5,2.5,0,0,0-1.221-2.311,6.426,6.426,0,0,0-2.715-.863,3.86,3.86,0,0,1-1.943-.674,1.115,1.115,0,0,1-.054-1.274,1.714,1.714,0,0,1,1.54-.6,4.488,4.488,0,0,1,.492.029,4.895,4.895,0,0,1,1.98,1.018l.063.046a1.072,1.072,0,0,0,.376.067.864.864,0,0,0,.7-.335.958.958,0,0,0-.013-1.239,2.765,2.765,0,0,0-1.05-.835,6.951,6.951,0,0,0-2.552-.528,5.353,5.353,0,0,0-2.8.9,2.839,2.839,0,0,0-1.486,2.313,2.361,2.361,0,0,0,1.361,2.139,7.006,7.006,0,0,0,2.6.759,2.672,2.672,0,0,1,1.982.852.982.982,0,0,1,0,1.173c-.276.417-.924.628-1.928.628a4.2,4.2,0,0,1-2.732-1.135A.9.9,0,0,0,753.953,3391.387Z" fill="#614261"/>
    <path id="Gradient_Overlay" data-name="Gradient Overlay" d="M758.624,3396.769l-.071-.04s-.835.1-1.2.1a7.514,7.514,0,0,1-7.486-7.541.822.822,0,0,1,.044-.23,4.7,4.7,0,0,1,3.789-7.865,4.8,4.8,0,0,1,2.382.684l.046-.028a7.488,7.488,0,0,1,8.711,7.439c0,.067,0,.133,0,.2l.049.105a4.87,4.87,0,0,1,1.046,2.977,4.925,4.925,0,0,1-4.925,4.839h-.062A4.013,4.013,0,0,1,758.624,3396.769Z" opacity="0.13" fill="url(#linear-gradient)"/>
    <path id="Color_Overlay" data-name="Color Overlay" d="M758.624,3396.769l-.071-.04s-.835.1-1.2.1a7.514,7.514,0,0,1-7.486-7.541.822.822,0,0,1,.044-.23,4.7,4.7,0,0,1,3.789-7.865,4.8,4.8,0,0,1,2.382.684l.046-.028a7.488,7.488,0,0,1,8.711,7.439c0,.067,0,.133,0,.2l.049.105a4.87,4.87,0,0,1,1.046,2.977,4.925,4.925,0,0,1-4.925,4.839h-.062A4.013,4.013,0,0,1,758.624,3396.769Z" fill="#717171"/>
  </g>
</svg>
