<svg xmlns="http://www.w3.org/2000/svg" xmlns:xlink="http://www.w3.org/1999/xlink" width="20.452" height="15.123" viewBox="0 0 20.452 15.123">
  <defs>
    <linearGradient id="linear-gradient" x1="0.5" y1="1" x2="0.5" gradientUnits="objectBoundingBox">
      <stop offset="0"/>
      <stop offset="1" stop-opacity="0"/>
    </linearGradient>
  </defs>
  <g id="Twitter" transform="translate(-702 -3381.461)">
    <path id="Twitter-2" data-name="Twitter" d="M702.185,3392.654a15.355,15.355,0,0,0,3.91,1.267,3.594,3.594,0,0,0,3.631-1.3s.355-.514-.125-.764c0,0-4.709-1.377-4.375-2.188,0,0-.021-.457.584-.353,0,0,.681-.675.348-.883,0,0-.522-.677-.1-.718,0,0,1.064.287,1.461.391,0,0,.271-.1.021-.285s-.7-.553-.612-.637c0,0,.174-.408.842-.117,0,0,.208-.042.021-.249,0,0-.481-.333-.21-.6,0,0,.764-.551,2.705,1.8,0,0,.355.478.4.02,0,0,1.407-5.974,3.682-6.369,0,0,.73.145.876-.084,0,0,.632-.249.841-.042,0,0,.209.312.459.125,0,0,.9-.354.626.228,0,0-.924.825-1.237.846s-.25.312.021.353c0,0,3.819.334,3.819,3.122,0,0,.219.662.929-.024a7.753,7.753,0,0,1,1.345-.714s.292-.187.25.25a5.083,5.083,0,0,1-1.565,1.707s-.48.6.209.479a4.188,4.188,0,0,0,.983-.325s.814-.395.438.313a10.509,10.509,0,0,1-2.089,1.108s-.25.062-.25.291c0,0-.23,7.276-9.787,7.276a10.458,10.458,0,0,1-7.916-3.384S701.7,3392.551,702.185,3392.654Z" fill="#212121"/>
    <path id="Gradient_Overlay" data-name="Gradient Overlay" d="M702.185,3392.654a15.355,15.355,0,0,0,3.91,1.267,3.594,3.594,0,0,0,3.631-1.3s.355-.514-.125-.764c0,0-4.709-1.377-4.375-2.188,0,0-.021-.457.584-.353,0,0,.681-.675.348-.883,0,0-.522-.677-.1-.718,0,0,1.064.287,1.461.391,0,0,.271-.1.021-.285s-.7-.553-.612-.637c0,0,.174-.408.842-.117,0,0,.208-.042.021-.249,0,0-.481-.333-.21-.6,0,0,.764-.551,2.705,1.8,0,0,.355.478.4.02,0,0,1.407-5.974,3.682-6.369,0,0,.73.145.876-.084,0,0,.632-.249.841-.042,0,0,.209.312.459.125,0,0,.9-.354.626.228,0,0-.924.825-1.237.846s-.25.312.021.353c0,0,3.819.334,3.819,3.122,0,0,.219.662.929-.024a7.753,7.753,0,0,1,1.345-.714s.292-.187.25.25a5.083,5.083,0,0,1-1.565,1.707s-.48.6.209.479a4.188,4.188,0,0,0,.983-.325s.814-.395.438.313a10.509,10.509,0,0,1-2.089,1.108s-.25.062-.25.291c0,0-.23,7.276-9.787,7.276a10.458,10.458,0,0,1-7.916-3.384S701.7,3392.551,702.185,3392.654Z" opacity="0.13" fill="url(#linear-gradient)"/>
    <path id="Color_Overlay" data-name="Color Overlay" d="M702.185,3392.654a15.355,15.355,0,0,0,3.91,1.267,3.594,3.594,0,0,0,3.631-1.3s.355-.514-.125-.764c0,0-4.709-1.377-4.375-2.188,0,0-.021-.457.584-.353,0,0,.681-.675.348-.883,0,0-.522-.677-.1-.718,0,0,1.064.287,1.461.391,0,0,.271-.1.021-.285s-.7-.553-.612-.637c0,0,.174-.408.842-.117,0,0,.208-.042.021-.249,0,0-.481-.333-.21-.6,0,0,.764-.551,2.705,1.8,0,0,.355.478.4.02,0,0,1.407-5.974,3.682-6.369,0,0,.73.145.876-.084,0,0,.632-.249.841-.042,0,0,.209.312.459.125,0,0,.9-.354.626.228,0,0-.924.825-1.237.846s-.25.312.021.353c0,0,3.819.334,3.819,3.122,0,0,.219.662.929-.024a7.753,7.753,0,0,1,1.345-.714s.292-.187.25.25a5.083,5.083,0,0,1-1.565,1.707s-.48.6.209.479a4.188,4.188,0,0,0,.983-.325s.814-.395.438.313a10.509,10.509,0,0,1-2.089,1.108s-.25.062-.25.291c0,0-.23,7.276-9.787,7.276a10.458,10.458,0,0,1-7.916-3.384S701.7,3392.551,702.185,3392.654Z" fill="#2ac2c8"/>
  </g>
</svg>
