<svg xmlns="http://www.w3.org/2000/svg" width="31.997" height="32.001" viewBox="0 0 31.997 32.001">
  <path id="Home" d="M809.985,3010.985a2,2,0,0,1-2-2v-7.008h-8v7.008a2,2,0,0,1-2,2h-4a2,2,0,0,1-2-2v-11.192a3.018,3.018,0,0,1-1,.181,3,3,0,0,1-2.12-5.125l13-13.013a3.073,3.073,0,0,1,4.243,0l13,13.013a2.992,2.992,0,0,1-3.121,4.945v11.192a2,2,0,0,1-2,2Zm-2-11.01a2,2,0,0,1,2,2v7.008h4v-12.771l-10-10.01-10,10.01v12.771h4v-7.008a2,2,0,0,1,2-2Zm-1.878-15.9-.707.708,10.879,10.889a1.023,1.023,0,0,0,1.414,0,1,1,0,0,0,0-1.416l-11.01-11.019A2.991,2.991,0,0,1,806.106,2984.08Zm-15.828,10.182a1,1,0,0,0,0,1.416,1.023,1.023,0,0,0,1.414,0l10.879-10.889-.707-.708a2.978,2.978,0,0,1-.577-.837Zm13-13.012a1,1,0,0,0,0,1.416l.707.708.706-.708a1,1,0,0,0,0-1.416,1,1,0,0,0-1.414,0Zm-3.292,12.72a4,4,0,1,1,4,4A4.006,4.006,0,0,1,799.985,2993.969Zm2,0a2,2,0,1,0,2-2A2,2,0,0,0,801.985,2993.969Z" transform="translate(-787.986 -2978.984)" fill="#3e3e3e"/>
</svg>
