<svg xmlns="http://www.w3.org/2000/svg" width="31.987" height="31.99" viewBox="0 0 31.987 31.99">
  <path id="Mail_2" d="M787.433,3110.175l29.991-20.991h0c.007,0,.015-.007.023-.011.025-.017.054-.026.08-.04a.784.784,0,0,1,.091-.045.967.967,0,0,1,.119-.042.9.9,0,0,1,.108-.02c.024,0,.048-.011.072-.013s.023-.006.035-.007a1.093,1.093,0,0,1,.135.013c.036,0,.071,0,.107.011a.7.7,0,0,1,.091.024.827.827,0,0,1,.1.038.924.924,0,0,1,.122.049c.006,0,.011.01.017.013s.009,0,.013.005.02.022.033.032.035.027.052.041.035.016.05.03.011.018.019.025a.975.975,0,0,1,.095.11.9.9,0,0,1,.058.083c.019.03.04.057.056.088s.013.043.021.063a1.064,1.064,0,0,1,.037.109c.005.019.015.037.02.056s.006.07.01.1a.934.934,0,0,1,0,.108c0,.031.007.062,0,.094L816,3120.094a1,1,0,0,1-1.474.778l-11-6c-.024-.013-.039-.036-.062-.052l-3.615,5.709a1,1,0,0,1-.114.138c-.013.014-.022.029-.036.043a.965.965,0,0,1-.278.187c-.023.011-.046.019-.07.027a1.008,1.008,0,0,1-.345.07h0a1,1,0,0,1-.343-.069c-.033-.013-.063-.028-.095-.043a.884.884,0,0,1-.1-.043c-.031-.02-.048-.051-.076-.073a.943.943,0,0,1-.147-.141.967.967,0,0,1-.1-.155.909.909,0,0,1-.116-.371.923.923,0,0,1-.021-.1v-8h-10a1,1,0,0,1-.573-1.819Zm12.573,6.371,10.9-17.216-10.9,12.05Zm14.155,1.848,2.422-24.288-12.054,19.035Zm-15.6-8.4,12.747-14.09-20.13,14.09Z" transform="translate(-787.007 -3089.005)" fill="#3e3e3e"/>
</svg>
