<svg xmlns="http://www.w3.org/2000/svg" width="32.03" height="31.976" viewBox="0 0 32.03 31.976">
  <path id="Phone_2" d="M793.082,3230.988a3.537,3.537,0,0,1-2.512-1.038l-.9-.9c-3.93-3.922-.77-13.221,7.193-21.169,5.483-5.472,11.835-8.871,16.58-8.871a6.377,6.377,0,0,1,4.631,1.692l.9.9a3.538,3.538,0,0,1,0,5.015l-3.6,3.59a3.644,3.644,0,0,1-5.025,0l-.9-.9a1.522,1.522,0,0,0-1.134-.429c-.9,0-2.926.523-6.43,4.019-4.114,4.106-4.555,6.593-3.6,7.55l.9.9a3.545,3.545,0,0,1,0,5.014l-3.6,3.59A3.537,3.537,0,0,1,793.082,3230.988Zm20.362-29.961c-4.164,0-10.111,3.25-15.152,8.281-6.924,6.91-10.218,15.3-7.193,18.319l.9.9a1.576,1.576,0,0,0,2.171,0l3.6-3.59a1.529,1.529,0,0,0,0-2.163l-.9-.9c-1.026-1.024-2.729-4.089,3.6-10.4,3.065-3.058,5.709-4.609,7.858-4.609a3.536,3.536,0,0,1,2.562,1.02l.9.9a1.571,1.571,0,0,0,2.169,0l3.6-3.59a1.526,1.526,0,0,0,0-2.164l-.9-.9A4.363,4.363,0,0,0,813.444,3201.027Z" transform="translate(-787.985 -3199.012)" fill="#3e3e3e"/>
</svg>
