<svg xmlns="http://www.w3.org/2000/svg" width="32" height="460.12" viewBox="0 0 32 460.12">
  <g id="Midlle" transform="translate(-744 -1220)">
    <rect id="Shape_10" data-name="Shape 10" width="1" height="419" transform="translate(760 1249)" fill="#353541"/>
    <g id="Ellipse_4" data-name="Ellipse 4" transform="translate(744 1220)" fill="#f9f9f9" stroke="#000" stroke-width="2">
      <ellipse cx="16" cy="16.35" rx="16" ry="16.35" stroke="none"/>
      <ellipse cx="16" cy="16.35" rx="15" ry="15.35" fill="none"/>
    </g>
    <g id="Ellipse_4_copy_2" data-name="Ellipse 4 copy 2" transform="translate(753 1229)" fill="#fb6470" stroke="#000" stroke-width="2">
      <ellipse cx="7" cy="7.5" rx="7" ry="7.5" stroke="none"/>
      <ellipse cx="7" cy="7.5" rx="6" ry="6.5" fill="none"/>
    </g>
    <g id="Ellipse_4_copy" data-name="Ellipse 4 copy" transform="translate(744 1379.54)" fill="#f9f9f9" stroke="#000" stroke-width="2">
      <ellipse cx="16" cy="16.35" rx="16" ry="16.35" stroke="none"/>
      <ellipse cx="16" cy="16.35" rx="15" ry="15.35" fill="none"/>
    </g>
    <g id="Ellipse_4_copy_3" data-name="Ellipse 4 copy 3" transform="translate(753 1388)" fill="#fb6470" stroke="#000" stroke-width="2">
      <ellipse cx="7" cy="7.5" rx="7" ry="7.5" stroke="none"/>
      <ellipse cx="7" cy="7.5" rx="6" ry="6.5" fill="none"/>
    </g>
    <g id="Ellipse_4-2" data-name="Ellipse 4" transform="translate(744 1488.88)" fill="#f9f9f9" stroke="#000" stroke-width="2">
      <ellipse cx="16" cy="16.35" rx="16" ry="16.35" stroke="none"/>
      <ellipse cx="16" cy="16.35" rx="15" ry="15.35" fill="none"/>
    </g>
    <g id="Ellipse_4_copy_4" data-name="Ellipse 4 copy 4" transform="translate(753 1498)" fill="#fb6470" stroke="#000" stroke-width="2">
      <ellipse cx="7" cy="7.5" rx="7" ry="7.5" stroke="none"/>
      <ellipse cx="7" cy="7.5" rx="6" ry="6.5" fill="none"/>
    </g>
    <g id="Ellipse_4_copy-2" data-name="Ellipse 4 copy" transform="translate(744 1647.42)" fill="#f9f9f9" stroke="#000" stroke-width="2">
      <ellipse cx="16" cy="16.35" rx="16" ry="16.35" stroke="none"/>
      <ellipse cx="16" cy="16.35" rx="15" ry="15.35" fill="none"/>
    </g>
    <g id="Ellipse_4_copy_5" data-name="Ellipse 4 copy 5" transform="translate(753 1656)" fill="#fb6470" stroke="#000" stroke-width="2">
      <ellipse cx="7" cy="7.5" rx="7" ry="7.5" stroke="none"/>
      <ellipse cx="7" cy="7.5" rx="6" ry="6.5" fill="none"/>
    </g>
  </g>
</svg>
